{"title":"Criminal (2016) 1080p Blu-ray x264 Dual-Audio AC3 5.1 ESub -DDR","uid":15787963,"size":6245773485,"categoryP":"video","categoryS":"hd___movies","magnet":"?xt=urn:btih:a61fea92c86f6091ecf12bfec394611703b54be2&amp;dn=Criminal+%282016%29+1080p+Blu-ray+x264+Dual-Audio+AC3+5.1+ESub+-DDR&amp;tr=udp%3A%2F%2Ftracker.leechers-paradise.org%3A6969&amp;tr=udp%3A%2F%2Fzer0day.ch%3A1337&amp;tr=udp%3A%2F%2Fopen.demonii.com%3A1337&amp;tr=udp%3A%2F%2Ftracker.coppersurfer.tk%3A6969&amp;tr=udp%3A%2F%2Fexodus.desync.com%3A6969","seeders":23,"leechers":39,"uploader":"SaM","files":3,"time":1473348614,"description":"1080p Blu-ray Rip x264\r\n\r\nDual Audio\r\n\r\nHindi Dolby Digital 5.1 AC3 Original Audio\r\n\r\nEnglish AAC 5.1 Audio\r\n\r\n\r\n\r\nEnglish SDH Subtitle\r\n\r\n \nhttp://extraimago.com/image/wmLi \nhttp://extraimago.com/image/wmLm \nhttp://extraimago.com/image/wmLR \nhttp://extraimago.com/image/wmLQ \nhttp://extraimago.com/image/wmLL \nhttp://extraimago.com/image/wmLy \nhttp://extraimago.com/image/wmLq \nhttp://extraimago.com/image/wmLS \nhttp://extraimago.com/image/wmLO \nhttp://extraimago.com/image/wmLE \nhttp://extraimago.com/image/wmL1\r\n\r\nSpecs:\r\nSource: BD50 @ DDR\r\n\r\nFormat : Matroska\r\nFile size : 5.75 GiB\r\nDuration : 1 h 53 min\r\nOverall bit rate : 7 251 kb/s\r\n\r\n\r\nVideo\r\nFormat : AVC\r\nFormat/Info : Advanced Video Codec\r\nFormat profile :   \r\nFormat settings, CABAC : Yes\r\nFormat settings, ReFrames : 5 frames\r\nCodec ID : V_MPEG4/ISO/AVC\r\nDuration : 1 h 53 min\r\nBit rate : 6 624 kb/s\r\nWidth : 1 920 pixels\r\nHeight : 800 pixels\r\nDisplay aspect ratio : 2.40:1\r\nFrame rate mode : Constant\r\nFrame rate : 23.976 (24000/1001) FPS\r\nColor space : YUV\r\nChroma subsampling : 4:2:0\r\nBit depth : 8 bits\r\nScan type : Progressive\r\nBits/(Pixel*Frame) : 0.180\r\nStream size : 5.26 GiB (91%)\r\nLanguage : English\r\nDefault : Yes\r\nForced : No\r\nColor primaries : BT.709\r\n\r\nAudio #1\r\nFormat : AC-3\r\nFormat/Info : Audio Coding 3\r\nMode extension : CM (complete main)\r\nFormat settings, Endianness : Big\r\nCodec ID : A_AC3\r\nDuration : 1 h 48 min\r\nBit rate mode : Constant\r\nBit rate : 448 kb/s\r\nChannel(s) : 6 channels\r\nChannel positions : Front: L C R, Side: L R, LFE\r\nSampling rate : 48.0 kHz\r\nFrame rate : 31.250 FPS (1536 spf)\r\nCompression mode : Lossy\r\nStream size : 348 MiB (6%)\r\nLanguage : Hindi\r\nDefault : Yes\r\nForced : No\r\n\r\nAudio #2\r\nID : 3\r\nFormat : AAC\r\nFormat/Info : Advanced Audio Codec\r\nFormat profile : LC\r\nCodec ID : A_AAC\r\nDuration : 1 h 53 min\r\nBit rate : 192 kb/s\r\nChannel(s) : 6 channels\r\nChannel positions : Front: L C R, Side: L R, LFE\r\nSampling rate : 48.0 kHz\r\nFrame rate : 46.875 FPS (1024 spf)\r\nCompression mode : Lossy\r\nDelay relative to video : 9 ms\r\nStream size : 156 MiB (3%)\r\nLanguage : English\r\nDefault : No\r\nForced : No\r\n\r\nText\r\nID : 4\r\nFormat : VobSub\r\nMuxing mode : zlib\r\nCodec ID : S_VOBSUB\r\nCodec ID/Info : Picture based subtitle format used on DVDs\r\nDuration : 1 h 43 min\r\nBit rate : 4 570 b/s\r\nCount of elements : 1276\r\nStream size : 3.40 MiB (0%)\r\nLanguage : English\r\nDefault : Yes\r\nForced : No\r\n\r\nChapters = YES","torrent":{"xt":"urn:btih:a61fea92c86f6091ecf12bfec394611703b54be2","amp;dn":"Criminal+%282016%29+1080p+Blu-ray+x264+Dual-Audio+AC3+5.1+ESub+-DDR","amp;tr":["udp%3A%2F%2Ftracker.leechers-paradise.org%3A6969","udp%3A%2F%2Fzer0day.ch%3A1337","udp%3A%2F%2Fopen.demonii.com%3A1337","udp%3A%2F%2Ftracker.coppersurfer.tk%3A6969","udp%3A%2F%2Fexodus.desync.com%3A6969"],"infoHash":"a61fea92c86f6091ecf12bfec394611703b54be2","infoHashBuffer":{"type":"Buffer","data":[166,31,234,146,200,111,96,145,236,241,43,254,195,148,97,23,3,181,75,226]},"announce":[],"urlList":[]}}